<svg width="36" height="36" viewBox="0 0 36 36" fill="none" xmlns="http://www.w3.org/2000/svg">
<path d="M36 18C36 27.9413 27.9413 36 18 36C8.05875 36 0 27.9413 0 18C0 8.05875 8.05875 0 18 0C27.9413 0 36 8.05875 36 18Z" fill="#FDED32"/>
<path d="M26.6605 12.6211C26.2798 13.0015 26.1535 13.5648 26.326 14.0749C27.1563 16.5287 26.5941 19.3497 24.6382 21.3055L11.2525 34.6913C6.73874 32.8648 3.13522 29.2613 1.30875 24.7475L14.6945 11.3618C16.6503 9.40594 19.4713 8.84372 21.9251 9.67401C22.4352 9.8465 22.9985 9.72015 23.3789 9.33948L28.9808 3.73782C30.2105 4.68594 31.3141 5.78952 32.2622 7.01917L26.6605 12.6211Z" fill="#06995F"/>
<path d="M27.7688 4.94989C28.4021 5.43823 29.0025 5.9675 29.565 6.53439L24.0752 12.0243C23.6945 12.4049 23.1312 12.5313 22.6214 12.3585C20.1676 11.5285 17.3463 12.0907 15.3907 14.0466L2.41919 27.0179C1.99814 26.2919 1.6268 25.5333 1.30875 24.7475L14.6945 11.3618C16.6503 9.40594 19.4713 8.84372 21.9251 9.67401C22.4352 9.8465 22.9985 9.72015 23.3789 9.33948L27.7688 4.94989Z" fill="#037E4B"/>
<path d="M12.8551 33.0886L2.91138 23.1449L14.0482 12.0081L23.9919 21.9518L12.8551 33.0886Z" fill="#E43950"/>
<path d="M34.5819 5.39539L33.5877 6.38992C33.3649 6.6124 33.0304 6.65442 32.7654 6.51627L28.2678 11.0138L24.9865 7.73218L29.4837 3.23492C29.3456 2.9696 29.3876 2.63507 29.6101 2.41232L30.6046 1.41806C30.8793 1.1434 31.3245 1.1434 31.5989 1.41806L34.2339 4.05313L34.5822 4.40112C34.8566 4.67578 34.8566 5.121 34.5819 5.39539ZM15.7387 13.6986L14.0482 12.0081L2.91138 23.1449L4.6019 24.8354L15.7387 13.6986Z" fill="#AB2538"/>
<path d="M34.5819 5.39539L33.5877 6.38992C33.3649 6.6124 33.0304 6.65442 32.7654 6.51627L28.2678 11.0138L26.6767 9.4227L29.9583 6.14136C30.0957 6.00403 30.3181 6.00403 30.4555 6.14136L30.8532 6.53906C31.1388 6.82471 31.6088 6.81317 31.8796 6.505C32.1268 6.22348 32.0955 5.79254 31.8304 5.52777L31.1342 4.83124C31.0482 4.58459 31.1037 4.29977 31.3006 4.10284L32.2951 3.10858C32.5695 2.83392 33.0147 2.83392 33.2894 3.10858L34.2339 4.05313L34.5822 4.40112C34.8566 4.67578 34.8566 5.121 34.5819 5.39539Z" fill="#E43950"/>
<path d="M17.6776 22.7969C16.4421 24.0326 14.4388 24.0326 13.2031 22.7969C11.9674 21.5612 11.9674 19.5579 13.2031 18.3222C14.4388 17.0868 16.4421 17.0868 17.6776 18.3222C18.9132 19.5579 18.9132 21.5612 17.6776 22.7969ZM8.67865 24.2389C8.54132 24.1015 8.31885 24.1015 8.18152 24.2389L7.68439 24.736C7.54706 24.8733 7.54706 25.0958 7.68439 25.2331L10.7669 28.3156C10.9042 28.4529 11.1267 28.4529 11.264 28.3156L11.7611 27.8185C11.8985 27.6812 11.8985 27.4584 11.7611 27.3214L8.67865 24.2389ZM8.97693 20.5595C8.8396 20.4222 8.61713 20.4222 8.4798 20.5595L7.98267 21.0567C7.84534 21.194 7.84534 21.4167 7.98267 21.5541L14.4459 28.0173C14.5833 28.1547 14.806 28.1547 14.9433 28.0173L15.4405 27.5202C15.5778 27.3829 15.5778 27.1604 15.4405 27.0231L8.97693 20.5595Z" fill="#EF7280"/>
<path d="M16.6833 21.8027C15.9969 22.489 14.884 22.489 14.1974 21.8027C13.511 21.116 13.511 20.0031 14.1974 19.3167C14.884 18.6303 15.9969 18.6303 16.6833 19.3167C17.3697 20.0031 17.3697 21.116 16.6833 21.8027Z" fill="#AB2538"/>
</svg>
