<svg width="188" height="185" viewBox="0 0 188 185" fill="none" xmlns="http://www.w3.org/2000/svg">
<circle cx="94" cy="89" r="50" fill="#6FCF97"/>
<path d="M121 70L83.875 107L67 90.1818" stroke="white" stroke-width="2" stroke-linecap="round" stroke-linejoin="round"/>
<path d="M7.01507 168.4C8.62307 168.4 9.88307 168.784 10.7951 169.552C11.7071 170.32 12.1631 171.376 12.1631 172.72C12.1631 174.064 11.7071 175.12 10.7951 175.888C9.88307 176.644 8.62307 177.022 7.01507 177.022H3.63107V181H2.29907V168.4H7.01507ZM6.97907 175.852C8.22707 175.852 9.18107 175.582 9.84107 175.042C10.5011 174.49 10.8311 173.716 10.8311 172.72C10.8311 171.7 10.5011 170.92 9.84107 170.38C9.18107 169.828 8.22707 169.552 6.97907 169.552H3.63107V175.852H6.97907ZM23.481 171.532V181H22.257V179.272C21.921 179.848 21.459 180.298 20.871 180.622C20.283 180.934 19.611 181.09 18.855 181.09C17.619 181.09 16.641 180.748 15.921 180.064C15.213 179.368 14.859 178.354 14.859 177.022V171.532H16.137V176.896C16.137 177.892 16.383 178.648 16.875 179.164C17.367 179.68 18.069 179.938 18.981 179.938C19.977 179.938 20.763 179.638 21.339 179.038C21.915 178.426 22.203 177.58 22.203 176.5V171.532H23.481ZM28.2843 173.386C28.5843 172.75 29.0283 172.27 29.6163 171.946C30.2163 171.622 30.9543 171.46 31.8303 171.46V172.702L31.5243 172.684C30.5283 172.684 29.7483 172.99 29.1843 173.602C28.6203 174.214 28.3383 175.072 28.3383 176.176V181H27.0603V171.532H28.2843V173.386ZM37.9804 181.09C37.0444 181.09 36.2044 180.886 35.4604 180.478C34.7284 180.07 34.1524 179.5 33.7324 178.768C33.3124 178.024 33.1024 177.19 33.1024 176.266C33.1024 175.342 33.3124 174.514 33.7324 173.782C34.1524 173.05 34.7284 172.48 35.4604 172.072C36.2044 171.664 37.0444 171.46 37.9804 171.46C38.7964 171.46 39.5224 171.622 40.1584 171.946C40.8064 172.258 41.3164 172.72 41.6884 173.332L40.7344 173.98C40.4224 173.512 40.0264 173.164 39.5464 172.936C39.0664 172.696 38.5444 172.576 37.9804 172.576C37.2964 172.576 36.6784 172.732 36.1264 173.044C35.5864 173.344 35.1604 173.776 34.8484 174.34C34.5484 174.904 34.3984 175.546 34.3984 176.266C34.3984 176.998 34.5484 177.646 34.8484 178.21C35.1604 178.762 35.5864 179.194 36.1264 179.506C36.6784 179.806 37.2964 179.956 37.9804 179.956C38.5444 179.956 39.0664 179.842 39.5464 179.614C40.0264 179.386 40.4224 179.038 40.7344 178.57L41.6884 179.218C41.3164 179.83 40.8064 180.298 40.1584 180.622C39.5104 180.934 38.7844 181.09 37.9804 181.09ZM48.8824 171.46C50.0704 171.46 51.0124 171.808 51.7084 172.504C52.4164 173.188 52.7704 174.19 52.7704 175.51V181H51.4924V175.636C51.4924 174.652 51.2464 173.902 50.7544 173.386C50.2624 172.87 49.5604 172.612 48.6484 172.612C47.6284 172.612 46.8184 172.918 46.2184 173.53C45.6304 174.13 45.3364 174.964 45.3364 176.032V181H44.0584V167.644H45.3364V173.188C45.6844 172.636 46.1644 172.21 46.7764 171.91C47.3884 171.61 48.0904 171.46 48.8824 171.46ZM59.552 171.46C60.788 171.46 61.736 171.772 62.396 172.396C63.056 173.008 63.386 173.92 63.386 175.132V181H62.162V179.524C61.874 180.016 61.448 180.4 60.884 180.676C60.332 180.952 59.672 181.09 58.904 181.09C57.848 181.09 57.008 180.838 56.384 180.334C55.76 179.83 55.448 179.164 55.448 178.336C55.448 177.532 55.736 176.884 56.312 176.392C56.9 175.9 57.83 175.654 59.102 175.654H62.108V175.078C62.108 174.262 61.88 173.644 61.424 173.224C60.968 172.792 60.302 172.576 59.426 172.576C58.826 172.576 58.25 172.678 57.698 172.882C57.146 173.074 56.672 173.344 56.276 173.692L55.7 172.738C56.18 172.33 56.756 172.018 57.428 171.802C58.1 171.574 58.808 171.46 59.552 171.46ZM59.102 180.082C59.822 180.082 60.44 179.92 60.956 179.596C61.472 179.26 61.856 178.78 62.108 178.156V176.608H59.138C57.518 176.608 56.708 177.172 56.708 178.3C56.708 178.852 56.918 179.29 57.338 179.614C57.758 179.926 58.346 180.082 59.102 180.082ZM69.3952 181.09C68.6272 181.09 67.8892 180.982 67.1812 180.766C66.4852 180.538 65.9392 180.256 65.5432 179.92L66.1192 178.912C66.5152 179.224 67.0132 179.482 67.6132 179.686C68.2132 179.878 68.8372 179.974 69.4852 179.974C70.3492 179.974 70.9852 179.842 71.3932 179.578C71.8132 179.302 72.0232 178.918 72.0232 178.426C72.0232 178.078 71.9092 177.808 71.6812 177.616C71.4532 177.412 71.1652 177.262 70.8172 177.166C70.4692 177.058 70.0072 176.956 69.4312 176.86C68.6632 176.716 68.0452 176.572 67.5772 176.428C67.1092 176.272 66.7072 176.014 66.3712 175.654C66.0472 175.294 65.8852 174.796 65.8852 174.16C65.8852 173.368 66.2152 172.72 66.8752 172.216C67.5352 171.712 68.4532 171.46 69.6292 171.46C70.2412 171.46 70.8532 171.544 71.4652 171.712C72.0772 171.868 72.5812 172.078 72.9772 172.342L72.4192 173.368C71.6392 172.828 70.7092 172.558 69.6292 172.558C68.8132 172.558 68.1952 172.702 67.7752 172.99C67.3672 173.278 67.1632 173.656 67.1632 174.124C67.1632 174.484 67.2772 174.772 67.5052 174.988C67.7452 175.204 68.0392 175.366 68.3872 175.474C68.7352 175.57 69.2152 175.672 69.8272 175.78C70.5832 175.924 71.1892 176.068 71.6452 176.212C72.1012 176.356 72.4912 176.602 72.8152 176.95C73.1392 177.298 73.3012 177.778 73.3012 178.39C73.3012 179.218 72.9532 179.878 72.2572 180.37C71.5732 180.85 70.6192 181.09 69.3952 181.09ZM83.9078 176.662H75.9878C76.0598 177.646 76.4378 178.444 77.1218 179.056C77.8058 179.656 78.6698 179.956 79.7138 179.956C80.3018 179.956 80.8418 179.854 81.3338 179.65C81.8258 179.434 82.2518 179.122 82.6118 178.714L83.3318 179.542C82.9118 180.046 82.3838 180.43 81.7478 180.694C81.1238 180.958 80.4338 181.09 79.6778 181.09C78.7058 181.09 77.8418 180.886 77.0858 180.478C76.3418 180.058 75.7598 179.482 75.3398 178.75C74.9198 178.018 74.7098 177.19 74.7098 176.266C74.7098 175.342 74.9078 174.514 75.3038 173.782C75.7118 173.05 76.2638 172.48 76.9598 172.072C77.6678 171.664 78.4598 171.46 79.3358 171.46C80.2118 171.46 80.9978 171.664 81.6938 172.072C82.3898 172.48 82.9358 173.05 83.3318 173.782C83.7278 174.502 83.9258 175.33 83.9258 176.266L83.9078 176.662ZM79.3358 172.558C78.4238 172.558 77.6558 172.852 77.0318 173.44C76.4198 174.016 76.0718 174.772 75.9878 175.708H82.7018C82.6178 174.772 82.2638 174.016 81.6398 173.44C81.0278 172.852 80.2598 172.558 79.3358 172.558ZM95.1621 181.09C94.2261 181.09 93.3861 180.886 92.6421 180.478C91.9101 180.07 91.3341 179.5 90.9141 178.768C90.4941 178.024 90.2841 177.19 90.2841 176.266C90.2841 175.342 90.4941 174.514 90.9141 173.782C91.3341 173.05 91.9101 172.48 92.6421 172.072C93.3861 171.664 94.2261 171.46 95.1621 171.46C95.9781 171.46 96.7041 171.622 97.3401 171.946C97.9881 172.258 98.4981 172.72 98.8701 173.332L97.9161 173.98C97.6041 173.512 97.2081 173.164 96.7281 172.936C96.2481 172.696 95.7261 172.576 95.1621 172.576C94.4781 172.576 93.8601 172.732 93.3081 173.044C92.7681 173.344 92.3421 173.776 92.0301 174.34C91.7301 174.904 91.5801 175.546 91.5801 176.266C91.5801 176.998 91.7301 177.646 92.0301 178.21C92.3421 178.762 92.7681 179.194 93.3081 179.506C93.8601 179.806 94.4781 179.956 95.1621 179.956C95.7261 179.956 96.2481 179.842 96.7281 179.614C97.2081 179.386 97.6041 179.038 97.9161 178.57L98.8701 179.218C98.4981 179.83 97.9881 180.298 97.3401 180.622C96.6921 180.934 95.9661 181.09 95.1621 181.09ZM105.092 181.09C104.18 181.09 103.358 180.886 102.626 180.478C101.894 180.058 101.318 179.482 100.898 178.75C100.478 178.018 100.268 177.19 100.268 176.266C100.268 175.342 100.478 174.514 100.898 173.782C101.318 173.05 101.894 172.48 102.626 172.072C103.358 171.664 104.18 171.46 105.092 171.46C106.004 171.46 106.826 171.664 107.558 172.072C108.29 172.48 108.86 173.05 109.268 173.782C109.688 174.514 109.898 175.342 109.898 176.266C109.898 177.19 109.688 178.018 109.268 178.75C108.86 179.482 108.29 180.058 107.558 180.478C106.826 180.886 106.004 181.09 105.092 181.09ZM105.092 179.956C105.764 179.956 106.364 179.806 106.892 179.506C107.432 179.194 107.852 178.756 108.152 178.192C108.452 177.628 108.602 176.986 108.602 176.266C108.602 175.546 108.452 174.904 108.152 174.34C107.852 173.776 107.432 173.344 106.892 173.044C106.364 172.732 105.764 172.576 105.092 172.576C104.42 172.576 103.814 172.732 103.274 173.044C102.746 173.344 102.326 173.776 102.014 174.34C101.714 174.904 101.564 175.546 101.564 176.266C101.564 176.986 101.714 177.628 102.014 178.192C102.326 178.756 102.746 179.194 103.274 179.506C103.814 179.806 104.42 179.956 105.092 179.956ZM124.316 171.46C125.504 171.46 126.434 171.802 127.106 172.486C127.79 173.17 128.132 174.178 128.132 175.51V181H126.854V175.636C126.854 174.652 126.614 173.902 126.134 173.386C125.666 172.87 125 172.612 124.136 172.612C123.152 172.612 122.378 172.918 121.814 173.53C121.25 174.13 120.968 174.964 120.968 176.032V181H119.69V175.636C119.69 174.652 119.45 173.902 118.97 173.386C118.502 172.87 117.83 172.612 116.954 172.612C115.982 172.612 115.208 172.918 114.632 173.53C114.068 174.13 113.786 174.964 113.786 176.032V181H112.508V171.532H113.732V173.26C114.068 172.684 114.536 172.24 115.136 171.928C115.736 171.616 116.426 171.46 117.206 171.46C117.998 171.46 118.682 171.628 119.258 171.964C119.846 172.3 120.284 172.798 120.572 173.458C120.92 172.834 121.418 172.348 122.066 172C122.726 171.64 123.476 171.46 124.316 171.46ZM136.475 171.46C137.363 171.46 138.167 171.664 138.887 172.072C139.607 172.468 140.171 173.032 140.579 173.764C140.987 174.496 141.191 175.33 141.191 176.266C141.191 177.214 140.987 178.054 140.579 178.786C140.171 179.518 139.607 180.088 138.887 180.496C138.179 180.892 137.375 181.09 136.475 181.09C135.707 181.09 135.011 180.934 134.387 180.622C133.775 180.298 133.271 179.83 132.875 179.218V184.492H131.597V171.532H132.821V173.404C133.205 172.78 133.709 172.3 134.333 171.964C134.969 171.628 135.683 171.46 136.475 171.46ZM136.385 179.956C137.045 179.956 137.645 179.806 138.185 179.506C138.725 179.194 139.145 178.756 139.445 178.192C139.757 177.628 139.913 176.986 139.913 176.266C139.913 175.546 139.757 174.91 139.445 174.358C139.145 173.794 138.725 173.356 138.185 173.044C137.645 172.732 137.045 172.576 136.385 172.576C135.713 172.576 135.107 172.732 134.567 173.044C134.039 173.356 133.619 173.794 133.307 174.358C133.007 174.91 132.857 175.546 132.857 176.266C132.857 176.986 133.007 177.628 133.307 178.192C133.619 178.756 134.039 179.194 134.567 179.506C135.107 179.806 135.713 179.956 136.385 179.956ZM143.797 167.644H145.075V181H143.797V167.644ZM156.875 176.662H148.955C149.027 177.646 149.405 178.444 150.089 179.056C150.773 179.656 151.637 179.956 152.681 179.956C153.269 179.956 153.809 179.854 154.301 179.65C154.793 179.434 155.219 179.122 155.579 178.714L156.299 179.542C155.879 180.046 155.351 180.43 154.715 180.694C154.091 180.958 153.401 181.09 152.645 181.09C151.673 181.09 150.809 180.886 150.053 180.478C149.309 180.058 148.727 179.482 148.307 178.75C147.887 178.018 147.677 177.19 147.677 176.266C147.677 175.342 147.875 174.514 148.271 173.782C148.679 173.05 149.231 172.48 149.927 172.072C150.635 171.664 151.427 171.46 152.303 171.46C153.179 171.46 153.965 171.664 154.661 172.072C155.357 172.48 155.903 173.05 156.299 173.782C156.695 174.502 156.893 175.33 156.893 176.266L156.875 176.662ZM152.303 172.558C151.391 172.558 150.623 172.852 149.999 173.44C149.387 174.016 149.039 174.772 148.955 175.708H155.669C155.585 174.772 155.231 174.016 154.607 173.44C153.995 172.852 153.227 172.558 152.303 172.558ZM164.48 180.424C164.24 180.64 163.94 180.808 163.58 180.928C163.232 181.036 162.866 181.09 162.482 181.09C161.594 181.09 160.91 180.85 160.43 180.37C159.95 179.89 159.71 179.212 159.71 178.336V172.612H158.018V171.532H159.71V169.462H160.988V171.532H163.868V172.612H160.988V178.264C160.988 178.828 161.126 179.26 161.402 179.56C161.69 179.848 162.098 179.992 162.626 179.992C162.89 179.992 163.142 179.95 163.382 179.866C163.634 179.782 163.85 179.662 164.03 179.506L164.48 180.424ZM174.716 176.662H166.796C166.868 177.646 167.246 178.444 167.93 179.056C168.614 179.656 169.478 179.956 170.522 179.956C171.11 179.956 171.65 179.854 172.142 179.65C172.634 179.434 173.06 179.122 173.42 178.714L174.14 179.542C173.72 180.046 173.192 180.43 172.556 180.694C171.932 180.958 171.242 181.09 170.486 181.09C169.514 181.09 168.65 180.886 167.894 180.478C167.15 180.058 166.568 179.482 166.148 178.75C165.728 178.018 165.518 177.19 165.518 176.266C165.518 175.342 165.716 174.514 166.112 173.782C166.52 173.05 167.072 172.48 167.768 172.072C168.476 171.664 169.268 171.46 170.144 171.46C171.02 171.46 171.806 171.664 172.502 172.072C173.198 172.48 173.744 173.05 174.14 173.782C174.536 174.502 174.734 175.33 174.734 176.266L174.716 176.662ZM170.144 172.558C169.232 172.558 168.464 172.852 167.84 173.44C167.228 174.016 166.88 174.772 166.796 175.708H173.51C173.426 174.772 173.072 174.016 172.448 173.44C171.836 172.852 171.068 172.558 170.144 172.558ZM185.976 167.644V181H184.752V179.128C184.368 179.764 183.858 180.25 183.222 180.586C182.598 180.922 181.89 181.09 181.098 181.09C180.21 181.09 179.406 180.886 178.686 180.478C177.966 180.07 177.402 179.5 176.994 178.768C176.586 178.036 176.382 177.202 176.382 176.266C176.382 175.33 176.586 174.496 176.994 173.764C177.402 173.032 177.966 172.468 178.686 172.072C179.406 171.664 180.21 171.46 181.098 171.46C181.866 171.46 182.556 171.622 183.168 171.946C183.792 172.258 184.302 172.72 184.698 173.332V167.644H185.976ZM181.206 179.956C181.866 179.956 182.46 179.806 182.988 179.506C183.528 179.194 183.948 178.756 184.248 178.192C184.56 177.628 184.716 176.986 184.716 176.266C184.716 175.546 184.56 174.904 184.248 174.34C183.948 173.776 183.528 173.344 182.988 173.044C182.46 172.732 181.866 172.576 181.206 172.576C180.534 172.576 179.928 172.732 179.388 173.044C178.86 173.344 178.44 173.776 178.128 174.34C177.828 174.904 177.678 175.546 177.678 176.266C177.678 176.986 177.828 177.628 178.128 178.192C178.44 178.756 178.86 179.194 179.388 179.506C179.928 179.806 180.534 179.956 181.206 179.956Z" fill="#219653"/>
<path d="M130.698 0L131.352 1.19692L132.545 1.85031L131.352 2.5037L130.698 3.69484L130.044 2.5037L128.851 1.85031L130.044 1.19692L130.698 0Z" fill="#6FCF97"/>
<path d="M137.167 21.2453L137.82 22.4423L139.011 23.0956L137.82 23.749L137.167 24.9402L136.513 23.749L135.316 23.0956L136.513 22.4423L137.167 21.2453Z" fill="#6FCF97"/>
<path d="M39.9787 40.0307L40.4692 40.9281L41.3679 41.418L40.4692 41.9036L39.9787 42.801L39.4881 41.9036L38.5938 41.418L39.4881 40.9281L39.9787 40.0307Z" fill="#6FCF97"/>
<path d="M115.915 13.8557L117.55 16.8428L120.537 18.4773L117.55 20.1056L115.915 23.0928L114.287 20.1056L111.3 18.4773L114.287 16.8428L115.915 13.8557Z" fill="#6FCF97"/>
<path d="M33.1953 50.804L34.3241 52.8633L36.3906 53.9905L34.3241 55.1221L33.1953 57.1814L32.0665 55.1221L30 53.9905L32.0665 52.8633L33.1953 50.804Z" fill="#6FCF97"/>
<path d="M165.088 97.4887L166.217 99.5524L168.279 100.68L166.217 101.807L165.088 103.87L163.959 101.807L161.893 100.68L163.959 99.5524L165.088 97.4887Z" fill="#6FCF97"/>
<path d="M131.161 133.938L131.978 135.431L133.469 136.247L131.978 137.063L131.161 138.556L130.345 137.063L128.851 136.247L130.345 135.431L131.161 133.938Z" fill="#6FCF97"/>
</svg>
