<svg width="36" height="36" viewBox="0 0 36 36" fill="none" xmlns="http://www.w3.org/2000/svg">
<g clip-path="url(#clip0)">
<path d="M36 18C36 27.9413 27.9413 36 18 36C8.05875 36 0 27.9413 0 18C0 8.05875 8.05875 0 18 0C27.9413 0 36 8.05875 36 18Z" fill="#84DEEA"/>
<path d="M13.2383 7.18781C13.3742 7.04334 13.6027 7.03977 13.7428 7.18012L14.6019 8.03925C14.8497 8.28699 14.9645 8.63801 14.9106 8.98408L14.7585 9.96488C14.7439 10.0588 14.825 10.1401 14.9192 10.1256L15.9 9.9734C16.246 9.91956 16.597 10.0344 16.8448 10.2818C17.0925 10.5296 17.2071 10.8806 17.1535 11.2269L17.0013 12.2077C16.9868 12.3019 17.0678 12.383 17.1617 12.3681L18.1425 12.216C18.4889 12.1624 18.8399 12.277 19.0876 12.5247C19.3351 12.7724 19.4499 13.1235 19.3961 13.4695L19.2439 14.4506C19.2294 14.5445 19.3107 14.6256 19.4046 14.611L20.3854 14.4588C20.7315 14.405 21.0825 14.5198 21.3302 14.7676C21.578 15.0153 21.6928 15.3663 21.6389 15.7124L21.4868 16.6932C21.4722 16.7874 21.5533 16.8684 21.6472 16.8539L22.628 16.7017C22.9743 16.6479 23.3253 16.7627 23.5731 17.0104C23.8208 17.2579 23.9354 17.6092 23.8818 17.9552L23.7296 18.936C23.7151 19.03 23.7961 19.1113 23.89 19.0964L24.8708 18.9443C25.2172 18.8907 25.5682 19.0053 25.8157 19.253C26.0634 19.5007 26.1782 19.8518 26.1244 20.1981L25.9722 21.1789C25.9577 21.2728 26.0387 21.3539 26.1329 21.3393L27.1137 21.1871C27.4598 21.1333 27.8108 21.2481 28.0585 21.4959L28.8317 22.2687C28.9712 22.4085 28.9685 22.6357 28.8257 22.7719L25.457 25.8547L10.1541 10.5521L13.2383 7.18781Z" fill="#962437"/>
<path d="M32.157 19.832C32.157 22.6873 29.2083 21.5895 25.5707 21.5895C21.9331 21.5895 18.9844 22.6873 18.9844 19.832C18.9844 16.9763 21.9331 13.8054 25.5707 13.8054C29.2083 13.8054 32.157 16.9763 32.157 19.832ZM29.7197 10.3038C32.2919 7.73162 32.1348 3.40438 30.1157 1.3851C28.0965 -0.633914 26.7877 2.22747 24.2158 4.79965C21.6436 7.37182 18.782 8.68057 20.8013 10.6999C22.8203 12.7189 27.1475 12.8757 29.7197 10.3038ZM16.58 8.82064C14.0285 7.53881 13.686 10.6666 12.0528 13.9169C10.42 17.1675 8.11506 19.3096 10.6666 20.5914C13.2182 21.8732 17.3754 20.6617 19.0086 17.4114C20.6414 14.1608 19.1319 10.1025 16.58 8.82064Z" fill="#FDBF43"/>
<path d="M32.157 19.832C32.157 22.6873 29.2082 21.5895 25.5707 21.5895C21.9331 21.5895 18.9843 22.6873 18.9843 19.832C18.9843 19.5095 19.0223 19.1832 19.0939 18.858C19.6589 20.6568 22.3437 19.793 25.5707 19.793C28.7976 19.793 31.4824 20.6568 32.0474 18.858C32.1191 19.1832 32.157 19.5095 32.157 19.832ZM21.5672 11.3107C20.6949 9.63912 23.2039 8.35153 25.4858 6.06967C27.7676 3.78781 29.0552 1.2788 30.7265 2.15139C30.5475 1.87042 30.3437 1.61306 30.1157 1.3851C28.0964 -0.633914 26.7877 2.22747 24.2158 4.79965C21.6436 7.37182 18.7819 8.68057 20.8012 10.6996C21.0289 10.9275 21.2865 11.1313 21.5672 11.3107ZM12.0531 13.9172C10.42 17.1675 8.11502 19.3096 10.6666 20.5914C10.9547 20.7361 11.2632 20.8487 11.5862 20.9306C10.2324 19.6183 12.2094 17.607 13.6579 14.7236C15.1067 11.84 15.5401 9.05328 17.4009 9.35595C17.1425 9.14556 16.8681 8.96539 16.58 8.82064C14.0284 7.53881 13.6859 10.6666 12.0531 13.9172Z" fill="#FCB30B"/>
<path d="M27.3669 14.0669C27.7844 14.1899 28.1852 14.3534 28.5645 14.5503V21.7472C28.1852 21.7211 27.7844 21.6889 27.3669 21.6606V14.0669ZM24.9719 13.8348V21.5988C25.1691 21.5928 25.3688 21.5892 25.5707 21.5892C25.7726 21.5892 25.9722 21.5928 26.1694 21.5988V13.8348C25.9722 13.8159 25.7728 13.8054 25.5707 13.8054C25.3688 13.8054 25.1691 13.8159 24.9719 13.8348ZM29.762 15.3358V21.7969C30.2165 21.7958 30.6197 21.7603 30.9595 21.6642V16.5726C30.6194 16.1227 30.2165 15.7041 29.762 15.3358ZM20.1819 16.5726V21.6642C20.5219 21.7603 20.9248 21.7958 21.3794 21.7969V15.3358C20.9248 15.7041 20.5219 16.1227 20.1819 16.5726ZM22.5769 21.7472C22.9562 21.7213 23.3569 21.6892 23.7744 21.6606V14.0669C23.3569 14.1899 22.9562 14.3534 22.5769 14.5503V21.7472ZM22.8952 6.01941C22.5799 6.29462 22.2737 6.55499 21.9872 6.80493L27.0761 11.8938C27.4837 11.765 27.8825 11.5972 28.2648 11.389L22.8952 6.01941ZM24.6324 4.36954C24.497 4.51318 24.3586 4.65683 24.2158 4.79965C24.073 4.94247 23.9293 5.08118 23.7857 5.21631L29.2755 10.7065C29.4285 10.5804 29.5768 10.4464 29.7197 10.3038C29.8625 10.161 29.9962 10.0124 30.1226 9.85968L24.6324 4.36954ZM25.674 12.1855L21.1053 7.61655C20.7848 7.93872 20.5247 8.24881 20.3522 8.55725L23.9524 12.1575C24.5113 12.2355 25.0922 12.2462 25.674 12.1855ZM31.5736 4.53653L27.9731 0.93631C27.6649 1.1088 27.3549 1.36862 27.0327 1.68915L31.6014 6.25809C31.6623 5.67609 31.6513 5.09518 31.5736 4.53653ZM25.4355 3.4791L30.8051 8.84866C31.013 8.46634 31.1808 8.06754 31.3099 7.65994L26.2211 2.57108C25.9711 2.85782 25.7105 3.16379 25.4355 3.4791ZM10.568 16.5215L16.9989 19.7523C17.3452 19.5016 17.671 19.217 17.9684 18.8992L11.183 15.4902C10.9701 15.8505 10.7614 16.1941 10.568 16.5215ZM12.0531 13.9172C11.9625 14.0974 11.8696 14.2743 11.7757 14.4478L18.7136 17.9333C18.819 17.7654 18.9179 17.5919 19.0085 17.4114C19.0992 17.231 19.1794 17.048 19.2511 16.8632L12.3132 13.3778C12.23 13.5569 12.1437 13.7368 12.0531 13.9172ZM9.56689 18.6987L14.1166 20.9844C14.6714 20.8828 15.2265 20.7106 15.7596 20.4697L9.98602 17.5693C9.78305 17.9758 9.63364 18.3518 9.56689 18.6987ZM18.955 11.3538L14.405 9.06812C14.1666 9.32877 13.9543 9.67319 13.7491 10.0789L19.5224 12.9792C19.3975 12.4077 19.2044 11.8597 18.955 11.3538ZM13.2558 11.1712C13.1086 11.5216 12.9576 11.8941 12.7958 12.28L19.5812 15.689C19.6587 15.2606 19.6924 14.8291 19.6867 14.4017L13.2558 11.1712Z" fill="#FC9302"/>
<path d="M0.0411987 19.2044C0.966797 18.3889 1.90997 17.593 2.87292 16.8195C3.55627 16.2705 4.24841 15.7316 4.94989 15.2042L7.17105 13.5352L9.65698 11.0492L11.3371 9.26394C11.473 9.11947 11.7015 9.11617 11.8419 9.25625L12.6134 10.0278C12.8611 10.2755 12.9757 10.6268 12.9221 10.9729L12.77 11.9537C12.7551 12.0476 12.8364 12.1286 12.9304 12.1141L13.9112 11.9619C14.2575 11.9083 14.6085 12.0229 14.856 12.2706C15.1037 12.5184 15.2185 12.8694 15.1647 13.2157L15.0125 14.1965C14.998 14.2905 15.0793 14.3715 15.1732 14.3569L16.154 14.2048C16.5001 14.1509 16.8511 14.2657 17.0988 14.5135C17.3466 14.7612 17.4614 15.1122 17.4076 15.4583L17.2554 16.4391C17.2408 16.5333 17.3219 16.6143 17.4158 16.5998L18.3966 16.4476C18.743 16.3938 19.094 16.5086 19.3417 16.7563C19.5894 17.0041 19.704 17.3551 19.6504 17.7012L19.4983 18.682C19.4837 18.7759 19.5647 18.8572 19.6587 18.8424L20.6395 18.6902C20.9858 18.6367 21.3365 18.7512 21.5843 18.9989C21.832 19.2467 21.9468 19.5977 21.893 19.944L21.7408 20.9248C21.7263 21.0188 21.8073 21.0998 21.9015 21.0852L22.8823 20.9331C23.2284 20.8792 23.5794 20.994 23.8271 21.2418C24.0749 21.4895 24.1894 21.8405 24.1359 22.1866L23.9837 23.1674C23.9691 23.2613 24.0502 23.3426 24.1441 23.3281L25.1252 23.1759C25.4713 23.1221 25.8223 23.2369 26.07 23.4846L26.7435 24.1581C26.8833 24.2976 26.8805 24.5251 26.7374 24.6613L24.9615 26.3535L24.9598 26.3518L22.4739 28.8377L22.4588 28.8531L20.8026 31.0567C20.2769 31.7565 19.7397 32.4465 19.1923 33.1279C18.4191 34.0908 17.6232 35.034 16.808 35.9596C7.82089 35.3719 0.634735 28.1895 0.0411987 19.2044Z" fill="#E43950"/>
<path d="M22.9867 25.4394C22.7052 25.6863 22.2743 25.655 22.0095 25.3902L10.9413 14.3223C10.6669 14.0477 10.2217 14.0477 9.94705 14.3223C9.67239 14.5967 9.67239 15.0419 9.94705 15.3166L21.032 26.4015C21.3066 26.6762 21.3066 27.1214 21.032 27.3961C20.7576 27.6704 20.3124 27.6704 20.0377 27.3961L8.81656 16.1749C8.56882 15.9272 8.17688 15.8997 7.897 16.1101L6.73135 16.986C5.58246 17.8495 4.45801 18.7432 3.358 19.6647C2.38159 20.4824 1.42633 21.3239 0.490295 22.1858C0.260407 21.2198 0.108521 20.2236 0.0409546 19.2044C0.966553 18.3889 1.91 17.593 2.87296 16.8195C3.5563 16.2705 4.24844 15.7316 4.94992 15.2043L7.17108 13.5352L9.65701 11.0492L11.3371 9.26422C11.4731 9.11948 11.7016 9.11618 11.8419 9.25653L12.6134 10.028C12.8612 10.2758 12.9757 10.6268 12.9221 10.9729L12.8697 11.3102L11.9062 12.3338C11.6458 12.6107 11.6524 13.0443 11.921 13.313L23.0208 24.413C23.3064 24.6984 23.2949 25.1683 22.9867 25.4394ZM2.58731 22.8724C1.95258 23.5069 1.6153 24.3594 1.55212 25.321C3.3602 29.3766 6.62341 32.6398 10.679 34.4479C11.6406 34.3847 12.4929 34.0474 13.1276 33.4127C15.0497 31.4907 14.2485 27.5729 11.3376 24.6624C8.42709 21.7516 4.50937 20.9504 2.58731 22.8724Z" fill="#C92E43"/>
</g>
<defs>
<clipPath id="clip0">
<rect width="36" height="36" fill="white"/>
</clipPath>
</defs>
</svg>
